HIERARCHY
ROOT reference
{
  OFFSET 0 0 0
  CHANNELS 6 Xposition Yposition Zposition Zrotation Xrotation Yrotation
  JOINT Hips
  {
    OFFSET 340.57 87.5694 214.797
    CHANNELS 3 Zrotation Xrotation Yrotation
    JOINT RightUpLeg
    {
      OFFSET -9.35418 -1.55218 -0.019184
      CHANNELS 3 Zrotation Xrotation Yrotation
      JOINT RightLeg
      {
        OFFSET -0.0482219 -41.8948 0.0725956
        CHANNELS 3 Zrotation Xrotation Yrotation
        JOINT RightFoot
        {
          OFFSET -1.00159 -42.3965 -1.97064
          CHANNELS 3 Zrotation Xrotation Yrotation
          End Site
          {
            OFFSET 0 -7.69 17.5
          }
        }
      }
    }
    JOINT LeftUpLeg
    {
      OFFSET 9.33628 -1.64535 -0.0795185
      CHANNELS 3 Zrotation Xrotation Yrotation
      JOINT LeftLeg
      {
        OFFSET 0.124871 -41.8725 -0.08325
        CHANNELS 3 Zrotation Xrotation Yrotation
        JOINT LeftFoot
        {
          OFFSET 0.728222 -40.8097 2.1196
          CHANNELS 3 Zrotation Xrotation Yrotation
          End Site
          {
            OFFSET 0 -7.69 17.5
          }
        }
      }
    }
    JOINT Spine
    {
      OFFSET -0.0135102 14.2943 0.0647361
      CHANNELS 3 Zrotation Xrotation Yrotation
      JOINT Spine1
      {
        OFFSET 0.0181502 9.72385 0.0148045
        CHANNELS 3 Zrotation Xrotation Yrotation
        JOINT Spine2
        {
          OFFSET 0.0557859 10.1166 -0.00979693
          CHANNELS 3 Zrotation Xrotation Yrotation
          JOINT Spine3
          {
            OFFSET 0.0359868 9.71757 0.00306838
            CHANNELS 3 Zrotation Xrotation Yrotation
            JOINT Neck
            {
              OFFSET 0.139197 10.3803 0.0501204
              CHANNELS 3 Zrotation Xrotation Yrotation
              JOINT Head
              {
                OFFSET 0.148012 9.47645 -0.000545472
                CHANNELS 3 Zrotation Xrotation Yrotation
                End Site
                {
                  OFFSET 0 15.95 0
                }
              }
            }
            JOINT RightShoulder
            {
              OFFSET -3.16276 6.92807 0.0312834
              CHANNELS 3 Zrotation Xrotation Yrotation
              JOINT RightArm
              {
                OFFSET -12.7681 0.0492996 0.0890957
                CHANNELS 3 Zrotation Xrotation Yrotation
                JOINT RightForeArm
                {
                  OFFSET -26.4761 -0.090776 0.147076
                  CHANNELS 3 Zrotation Xrotation Yrotation
                  JOINT RightHand
                  {
                    OFFSET -25.9655 0.0607057 -0.248467
                    CHANNELS 3 Zrotation Xrotation Yrotation
                    JOINT RightHandThumb1
                    {
                      OFFSET -2.48905 0.190105 3.12053
                      CHANNELS 3 Zrotation Xrotation Yrotation
                      JOINT RightHandThumb2
                      {
                        OFFSET -3.68274 0 0
                        CHANNELS 3 Zrotation Xrotation Yrotation
                        JOINT RightHandThumb3
                        {
                          OFFSET -2.55832 0 0
                          CHANNELS 3 Zrotation Xrotation Yrotation
                          End Site
                          {
                            OFFSET -2.194 0 0
                          }
                        }
                      }
                    }
                    JOINT RightInHandIndex
                    {
                      OFFSET -3.22368 0.508421 1.97842
                      CHANNELS 3 Zrotation Xrotation Yrotation
                      JOINT RightHandIndex1
                      {
                        OFFSET -5.21684 -0.091368 0.999158
                        CHANNELS 3 Zrotation Xrotation Yrotation
                        JOINT RightHandIndex2
                        {
                          OFFSET -3.61937 0 0
                          CHANNELS 3 Zrotation Xrotation Yrotation
                          JOINT RightHandIndex3
                          {
                            OFFSET -2.0521 0 0
                            CHANNELS 3 Zrotation Xrotation Yrotation
                            End Site
                            {
                              OFFSET -1.805 0 0
                            }
                          }
                        }
                      }
                    }
                    JOINT RightInHandMiddle
                    {
                      OFFSET -3.38211 0.517263 0.756737
                      CHANNELS 3 Zrotation Xrotation Yrotation
                      JOINT RightHandMiddle1
                      {
                        OFFSET -5.17411 -0.084 0.313895
                        CHANNELS 3 Zrotation Xrotation Yrotation
                        JOINT RightHandMiddle2
                        {
                          OFFSET -3.94947 0 0
                          CHANNELS 3 Zrotation Xrotation Yrotation
                          JOINT RightHandMiddle3
                          {
                            OFFSET -2.47579 0 0
                            CHANNELS 3 Zrotation Xrotation Yrotation
                            End Site
                            {
                              OFFSET -1.975 0 0
                            }
                          }
                        }
                      }
                    }
                    JOINT RightInHandRing
                    {
                      OFFSET -3.36516 0.537895 -0.128947
                      CHANNELS 3 Zrotation Xrotation Yrotation
                      JOINT RightHandRing1
                      {
                        OFFSET -4.63474 -0.022105 -0.478947
                        CHANNELS 3 Zrotation Xrotation Yrotation
                        JOINT RightHandRing2
                        {
                          OFFSET -3.44238 0 0
                          CHANNELS 3 Zrotation Xrotation Yrotation
                          JOINT RightHandRing3
                          {
                            OFFSET -2.3881 0 0
                            CHANNELS 3 Zrotation Xrotation Yrotation
                            End Site
                            {
                              OFFSET -1.857 0 0
                            }
                          }
                        }
                      }
                    }
                    JOINT RightInHandPinky
                    {
                      OFFSET -3.16105 0.469368 -1.20179
                      CHANNELS 3 Zrotation Xrotation Yrotation
                      JOINT RightHandPinky1
                      {
                        OFFSET -4.14105 -0.022105 -1.09053
                        CHANNELS 3 Zrotation Xrotation Yrotation
                        JOINT RightHandPinky2
                        {
                          OFFSET -2.75653 0 0
                          CHANNELS 3 Zrotation Xrotation Yrotation
                          JOINT RightHandPinky3
                          {
                            OFFSET -1.74189 0 0
                            CHANNELS 3 Zrotation Xrotation Yrotation
                            End Site
                            {
                              OFFSET -1.645 0 0
                            }
                          }
                        }
                      }
                    }
                  }
                }
              }
            }
            JOINT LeftShoulder
            {
              OFFSET 3.20588 6.97332 0.0254387
              CHANNELS 3 Zrotation Xrotation Yrotation
              JOINT LeftArm
              {
                OFFSET 12.8648 0.0341024 0.0247643
                CHANNELS 3 Zrotation Xrotation Yrotation
                JOINT LeftForeArm
                {
                  OFFSET 26.5059 -0.0470976 -0.0807017
                  CHANNELS 3 Zrotation Xrotation Yrotation
                  JOINT LeftHand
                  {
                    OFFSET 26.0013 -0.0100885 -0.0649647
                    CHANNELS 3 Zrotation Xrotation Yrotation
                    JOINT LeftHandThumb1
                    {
                      OFFSET 2.48905 0.190105 3.12053
                      CHANNELS 3 Zrotation Xrotation Yrotation
                      JOINT LeftHandThumb2
                      {
                        OFFSET 3.68274 0 0
                        CHANNELS 3 Zrotation Xrotation Yrotation
                        JOINT LeftHandThumb3
                        {
                          OFFSET 2.55832 0 0
                          CHANNELS 3 Zrotation Xrotation Yrotation
                          End Site
                          {
                            OFFSET 2.194 0 0
                          }
                        }
                      }
                    }
                    JOINT LeftInHandIndex
                    {
                      OFFSET 3.22368 0.508421 1.97842
                      CHANNELS 3 Zrotation Xrotation Yrotation
                      JOINT LeftHandIndex1
                      {
                        OFFSET 5.21684 -0.091368 0.999158
                        CHANNELS 3 Zrotation Xrotation Yrotation
                        JOINT LeftHandIndex2
                        {
                          OFFSET 3.61937 0 0
                          CHANNELS 3 Zrotation Xrotation Yrotation
                          JOINT LeftHandIndex3
                          {
                            OFFSET 2.0521 0 0
                            CHANNELS 3 Zrotation Xrotation Yrotation
                            End Site
                            {
                              OFFSET 1.805 0 0
                            }
                          }
                        }
                      }
                    }
                    JOINT LeftInHandMiddle
                    {
                      OFFSET 3.38211 0.517263 0.756737
                      CHANNELS 3 Zrotation Xrotation Yrotation
                      JOINT LeftHandMiddle1
                      {
                        OFFSET 5.17411 -0.084 0.313895
                        CHANNELS 3 Zrotation Xrotation Yrotation
                        JOINT LeftHandMiddle2
                        {
                          OFFSET 3.94947 0 0
                          CHANNELS 3 Zrotation Xrotation Yrotation
                          JOINT LeftHandMiddle3
                          {
                            OFFSET 2.47579 0 0
                            CHANNELS 3 Zrotation Xrotation Yrotation
                            End Site
                            {
                              OFFSET 1.975 0 0
                            }
                          }
                        }
                      }
                    }
                    JOINT LeftInHandRing
                    {
                      OFFSET 3.36516 0.537895 -0.128947
                      CHANNELS 3 Zrotation Xrotation Yrotation
                      JOINT LeftHandRing1
                      {
                        OFFSET 4.63474 -0.022105 -0.478947
                        CHANNELS 3 Zrotation Xrotation Yrotation
                        JOINT LeftHandRing2
                        {
                          OFFSET 3.44238 0 0
                          CHANNELS 3 Zrotation Xrotation Yrotation
                          JOINT LeftHandRing3
                          {
                            OFFSET 2.3881 0 0
                            CHANNELS 3 Zrotation Xrotation Yrotation
                            End Site
                            {
                              OFFSET 1.857 0 0
                            }
                          }
                        }
                      }
                    }
                    JOINT LeftInHandPinky
                    {
                      OFFSET 3.16105 0.469368 -1.20179
                      CHANNELS 3 Zrotation Xrotation Yrotation
                      JOINT LeftHandPinky1
                      {
                        OFFSET 4.14105 -0.022105 -1.09053
                        CHANNELS 3 Zrotation Xrotation Yrotation
                        JOINT LeftHandPinky2
                        {
                          OFFSET 2.75653 0 0
                          CHANNELS 3 Zrotation Xrotation Yrotation
                          JOINT LeftHandPinky3
                          {
                            OFFSET 1.74189 0 0
                            CHANNELS 3 Zrotation Xrotation Yrotation
                            End Site
                            {
                              OFFSET 1.645 0 0
                            }
                          }
                        }
                      }
                    }
                  }
                }
              }
            }
          }
        }
      }
    }
  }
}
MOTION
Frames:	5
Frame Time:	0.00833333
0 0 0 0 0 -0 28.5161 6.93684 -103.439 20.9277 -49.9903 10.3015 -5.72949 24.1356 -1.01494 4.64035 0.829235 36.9373 37.3402 -18.0194 12.2254 -6.28029 31.9646 0.464035 -0.0647131 -15.6855 12.3263 -6.85459 1.45271 -6.23852 -1.73154 0.193554 -1.60716 -2.86507 0.259354 -2.67462 -0.661334 -0.408573 2.19864 -1.75508 -2.25994 12.6092 -11.3567 -1.87895 34.8251 8.97052 0.484082 -1.88472 68.909 -27.3853 17.5648 21.7846 -18.5044 104.3 13.3213 -32.1986 15.6488 28.184 10.7294 19.1592 1.90635e-14 -6.36111e-15 -10 3.3606e-16 -9.54166e-15 -10 -9.54166e-15 0 3.18055e-15 19.9818 0.871897 2.3964 24 -3.18055e-15 1.43125e-14 20 1.59028e-14 1.27222e-14 -9.54166e-15 0 3.18055e-15 20 3.18055e-15 -5.96354e-16 24 3.18055e-15 -8.74653e-15 20 -6.36111e-15 -2.06736e-14 -9.54166e-15 0 3.18055e-15 19.9748 -1.02565 -2.81938 24 -1.59028e-15 -3.97569e-15 20 -7.95139e-15 -1.90833e-14 -9.54166e-15 0 3.18055e-15 19.7815 -3.00948 -8.30515 24 1.59028e-15 -2.22639e-14 20 -4.77083e-15 -6.36111e-15 8.93999 -14.2379 -46.1404 -19.436 39.3805 -105.684 26.7124 -5.1398 -15.7023 -38.7536 -8.38485 -11.1006 -28.184 10.7294 -19.1592 -1.12164e-15 6.36111e-15 10 2.6688e-15 3.18055e-15 10 -3.18055e-15 3.18055e-15 -0 -19.9818 0.871897 -2.3964 -24 0 1.43125e-14 -20 0 9.74045e-15 -3.18055e-15 3.18055e-15 -0 -20 6.36111e-15 -1.59028e-14 -24 9.54166e-15 -9.54166e-15 -20 -9.54166e-15 3.97569e-15 -3.18055e-15 3.18055e-15 -0 -19.9748 -1.02565 2.81938 -24 -9.54166e-15 -8.74653e-15 -20 -6.36111e-15 2.50469e-14 -3.18055e-15 3.18055e-15 -0 -19.7815 -3.00948 8.30515 -24 7.95139e-15 1.19271e-15 -20 1.59028e-15 2.00773e-14 
0 0 0 0 0 -0 28.4218 7.35701 -102.395 19.7357 -50.2191 11.0663 -4.66868 24.2932 -3.22205 4.83436 0.818728 36.3803 37.3811 -18.6813 12.3169 -5.98119 31.827 0.227391 -0.674366 -16.1634 11.4501 -6.7378 1.71549 -6.15341 -1.7046 0.270456 -1.59528 -2.81927 0.394054 -2.66181 -0.650247 -0.388582 2.16887 -1.66321 -2.02672 11.549 -11.2182 -2.05076 34.9951 8.87953 0.309312 -1.40006 69.5915 -26.1886 17.976 21.5537 -18.493 102.915 13.4181 -32.4399 16.1653 28.184 10.7294 19.1592 8.00641e-15 -9.54166e-15 -10 3.3606e-16 -9.54166e-15 -10 3.18055e-15 -3.18055e-15 6.36111e-15 19.9818 0.871897 2.3964 24 -1.11319e-14 1.59028e-15 20 9.54166e-15 -7.95139e-15 3.18055e-15 -3.18055e-15 6.36111e-15 20 3.18055e-15 3.97569e-16 24 -7.95139e-15 -1.74931e-14 20 -9.54166e-15 -2.22639e-14 3.18055e-15 -3.18055e-15 6.36111e-15 19.9748 -1.02565 -2.81938 24 -7.95139e-15 -1.43125e-14 20 -1.27222e-14 -2.54444e-14 3.18055e-15 -3.18055e-15 6.36111e-15 19.7815 -3.00948 -8.30515 24 1.59028e-15 -3.10104e-14 20 -9.54166e-15 -1.43125e-14 9.19687 -13.7538 -45.3388 -20.2806 39.4177 -104.508 26.3294 -5.08157 -15.5564 -38.7643 -8.26659 -10.7015 -28.184 10.7294 -19.1592 -7.15534e-15 2.22639e-14 10 1.1236e-14 9.54166e-15 10 9.54166e-15 -7.95139e-15 4.77083e-15 -19.9818 0.871897 -2.3964 -24 -3.18055e-15 1.43125e-14 -20 3.18055e-15 1.74931e-14 9.54166e-15 -7.95139e-15 4.77083e-15 -20 -1.11319e-14 6.36111e-15 -24 0 1.27222e-14 -20 -3.18055e-15 1.35174e-14 9.54166e-15 -7.95139e-15 4.77083e-15 -19.9748 -1.02565 2.81938 -24 -4.77083e-15 1.35174e-14 -20 -1.59028e-15 2.15681e-14 9.54166e-15 -7.95139e-15 4.77083e-15 -19.7815 -3.00948 8.30515 -24 9.54166e-15 7.95139e-15 -20 -1.59028e-15 2.83268e-14 
0 0 0 0 0 -0 28.3231 7.76476 -101.358 18.684 -50.4384 10.1308 -4.52514 24.2898 -3.5466 5.02973 0.830955 35.9257 37.4504 -19.3021 12.5272 -5.6881 31.6092 -0.0498393 -1.33308 -16.5953 10.4729 -6.6482 1.9811 -5.82178 -1.68356 0.353386 -1.5214 -2.78364 0.540243 -2.54691 -0.639792 -0.366835 2.12583 -1.54418 -1.74366 10.152 -11.1047 -2.29581 35.144 8.84228 0.0634495 -1.22597 70.3552 -25.0185 18.4568 21.4652 -18.1412 101.163 13.4454 -32.3586 17.0092 28.184 10.7294 19.1592 1.28508e-14 -9.54166e-15 -10 -3.45438e-15 -1.27222e-14 -10 3.18055e-15 1.59028e-15 7.15625e-15 19.9818 0.871897 2.3964 24 4.77083e-15 2.70347e-14 20 1.74931e-14 1.59028e-14 3.18055e-15 1.59028e-15 7.15625e-15 20 1.59028e-15 7.95139e-15 24 -3.18055e-15 3.57812e-15 20 0 -1.27222e-14 3.18055e-15 1.59028e-15 7.15625e-15 19.9748 -1.02565 -2.81938 24 1.59028e-15 -7.55382e-15 20 -3.18055e-15 -1.66979e-14 3.18055e-15 1.59028e-15 7.15625e-15 19.7815 -3.00948 -8.30515 24 7.95139e-16 -1.59028e-15 20 7.95139e-16 -9.54166e-15 9.56822 -13.1122 -44.7634 -20.9112 39.2298 -103.501 25.9601 -5.10542 -15.4354 -38.7687 -8.15838 -10.2731 -28.184 10.7294 -19.1592 -5.60818e-16 3.18055e-15 10 -0 0 10 -3.18055e-15 2.38542e-15 4.77083e-15 -19.9818 0.871897 -2.3964 -24 -3.18055e-15 -0 -20 -6.36111e-15 9.0447e-15 -3.18055e-15 2.38542e-15 4.77083e-15 -20 1.59028e-15 -1.27222e-14 -24 4.77083e-15 -4.77083e-15 -20 -4.77083e-15 1.56046e-14 -3.18055e-15 2.38542e-15 4.77083e-15 -19.9748 -1.02565 2.81938 -24 -7.95139e-15 -3.18055e-15 -20 1.59028e-15 1.39149e-15 -3.18055e-15 2.38542e-15 4.77083e-15 -19.7815 -3.00948 8.30515 -24 7.15625e-15 -1.59028e-15 -20 2.38542e-15 1.64743e-14 
0 0 0 0 0 -0 28.2215 8.14057 -100.314 17.5448 -50.6571 9.16789 -4.36353 24.2954 -3.98468 5.24334 0.859782 35.5723 37.4728 -19.9352 12.7754 -5.41863 31.3853 -0.299439 -1.99634 -17.0169 9.39956 -6.57384 2.24081 -5.45369 -1.66585 0.434064 -1.43777 -2.75376 0.681759 -2.41505 -0.629703 -0.346371 2.0798 -1.4164 -1.47302 8.77239 -10.9978 -2.53309 35.225 8.78688 -0.204292 -1.01817 71.2418 -23.9114 18.9945 23.7902 -13.4005 96.7748 11.0666 -28.6915 20.7797 28.184 10.7294 19.1592 1.85027e-14 -9.54166e-15 -10 2.10798e-15 -6.36111e-15 -10 1.98626e-31 1.59028e-15 -7.15625e-15 19.9818 0.871897 2.3964 24 0 1.78906e-14 20 1.19271e-14 2.06736e-14 1.98626e-31 1.59028e-15 -7.15625e-15 20 4.77083e-15 6.16232e-15 24 1.59028e-15 7.95139e-16 20 -1.59028e-15 5.56597e-15 1.98626e-31 1.59028e-15 -7.15625e-15 19.9748 -1.02565 -2.81938 24 -6.36111e-15 1.27222e-14 20 2.38542e-15 3.18055e-15 1.98626e-31 1.59028e-15 -7.15625e-15 19.7815 -3.00948 -8.30515 24 2.38542e-15 -4.57205e-15 20 4.37326e-15 1.51076e-14 9.92256 -12.5127 -44.203 -21.5089 39.082 -102.454 25.6003 -5.20919 -15.3124 -38.7584 -8.05174 -9.84317 -28.184 10.7294 -19.1592 8.00641e-15 9.54166e-15 10 3.22962e-15 0 10 -9.54166e-15 7.95139e-16 3.18055e-15 -19.9818 0.871897 -2.3964 -24 -3.18055e-15 2.38542e-15 -20 0 2.83268e-15 -9.54166e-15 7.95139e-16 3.18055e-15 -20 -7.95139e-15 -9.54166e-15 -24 1.59028e-15 -7.95139e-15 -20 -3.18055e-15 6.31141e-15 -9.54166e-15 7.95139e-16 3.18055e-15 -19.9748 -1.02565 2.81938 -24 -3.18055e-15 -5.56597e-15 -20 -3.18055e-15 -6.95746e-16 -9.54166e-15 7.95139e-16 3.18055e-15 -19.7815 -3.00948 8.30515 -24 9.93923e-15 -9.93923e-16 -20 2.38542e-15 1.08524e-14 
0 0 0 0 0 -0 28.0986 8.53823 -99.2292 16.3323 -50.8522 8.05841 -4.22376 24.2853 -4.43442 5.4714 0.916796 35.2832 37.4846 -20.6237 12.9314 -5.2015 31.164 -0.419981 -2.71197 -17.41 8.19306 -6.47904 2.51329 -5.04838 -1.6426 0.518407 -1.34458 -2.71497 0.829103 -2.26699 -0.621253 -0.326041 2.02709 -1.27542 -1.20381 7.33682 -10.9282 -2.77025 35.2185 8.68298 -0.516868 -0.810672 72.2227 -22.824 19.5399 23.3966 -13.4501 95.2846 11.2361 -29.1202 21.0648 28.184 10.7294 19.1592 1.45333e-14 0 -10 -3.1423e-16 -6.36111e-15 -10 -3.18055e-15 0 -7.55382e-15 19.9818 0.871897 2.3964 24 -1.59028e-15 2.10712e-14 20 9.54166e-15 1.31198e-14 -3.18055e-15 0 -7.55382e-15 20 3.97569e-15 8.24956e-15 24 3.97569e-15 3.97569e-15 20 -6.36111e-15 -3.18055e-15 -3.18055e-15 0 -7.55382e-15 19.9748 -1.02565 -2.81938 24 -1.98785e-15 5.36719e-15 20 2.38542e-15 -8.34896e-15 -3.18055e-15 0 -7.55382e-15 19.7815 -3.00948 -8.30515 24 -1.49089e-15 -8.84592e-15 20 -4.07509e-15 4.07509e-15 10.2309 -11.9878 -43.7158 -22.0984 38.9322 -101.346 25.199 -5.38687 -15.1573 -38.6956 -8.06707 -9.31836 -28.184 10.7294 -19.1592 -3.22962e-15 0 10 8.00641e-15 9.54166e-15 10 -3.18055e-15 2.38542e-15 1.59028e-15 -19.9818 0.871897 -2.3964 -24 -1.59028e-15 1.27222e-14 -20 -4.77083e-15 2.05028e-14 -3.18055e-15 2.38542e-15 1.59028e-15 -20 3.18055e-15 3.18055e-15 -24 7.95139e-15 1.07344e-14 -20 -7.95139e-15 1.66451e-14 -3.18055e-15 2.38542e-15 1.59028e-15 -19.9748 -1.02565 2.81938 -24 -1.19271e-14 1.23246e-14 -20 0 2.38666e-14 -3.18055e-15 2.38542e-15 1.59028e-15 -19.7815 -3.00948 8.30515 -24 7.85199e-15 -1.63997e-15 -20 -1.59028e-15 2.32236e-14 
